<?xml version="1.0" encoding="UTF-8" standalone="no"?>
<!DOCTYPE svg PUBLIC "-//W3C//DTD SVG 1.1//EN"
 "http://www.w3.org/Graphics/SVG/1.1/DTD/svg11.dtd">
<!-- Generated by graphviz version 2.40.1 (20161225.0304)
 -->
<!-- Title: G Pages: 1 -->
<svg width="528pt" height="1013pt"
 viewBox="0.00 0.00 528.44 1013.00" xmlns="http://www.w3.org/2000/svg" xmlns:xlink="http://www.w3.org/1999/xlink">
<g id="graph0" class="graph" transform="scale(1 1) rotate(0) translate(4 1009)">
<title>G</title>
<polygon fill="#ffffff" stroke="transparent" points="-4,4 -4,-1009 524.4362,-1009 524.4362,4 -4,4"/>
<g id="clust1" class="cluster">
<title>cluster_Global</title>
<path fill="none" stroke="#c0c0c0" d="M241.5954,-8C241.5954,-8 500.4362,-8 500.4362,-8 506.4362,-8 512.4362,-14 512.4362,-20 512.4362,-20 512.4362,-985 512.4362,-985 512.4362,-991 506.4362,-997 500.4362,-997 500.4362,-997 241.5954,-997 241.5954,-997 235.5954,-997 229.5954,-991 229.5954,-985 229.5954,-985 229.5954,-20 229.5954,-20 229.5954,-14 235.5954,-8 241.5954,-8"/>
<text text-anchor="middle" x="371.0158" y="-984.2" font-family="Times,serif" font-size="11.00" fill="#c0c0c0">Global</text>
</g>
<!-- \\Object_Sync_Sf_Activate -->
<g id="node1" class="node">
<title>\\Object_Sync_Sf_Activate</title>
<polygon fill="none" stroke="#000000" points="454.8406,-970 287.191,-970 287.191,-934 454.8406,-934 454.8406,-970"/>
<text text-anchor="middle" x="371.0158" y="-948.7" font-family="Courier,monospace" font-size="11.00" fill="#000000">Object_Sync_Sf_Activate</text>
</g>
<!-- \\Object_Sync_Sf_Salesforce_Select_Query -->
<g id="node2" class="node">
<title>\\Object_Sync_Sf_Salesforce_Select_Query</title>
<polygon fill="none" stroke="#000000" points="504.3567,-916 237.6749,-916 237.6749,-880 504.3567,-880 504.3567,-916"/>
<text text-anchor="middle" x="371.0158" y="-894.7" font-family="Courier,monospace" font-size="11.00" fill="#000000">Object_Sync_Sf_Salesforce_Select_Query</text>
</g>
<!-- \\Object_Sync_Sf_Admin_Notice -->
<g id="node3" class="node">
<title>\\Object_Sync_Sf_Admin_Notice</title>
<polygon fill="none" stroke="#000000" points="468.2449,-862 273.7867,-862 273.7867,-826 468.2449,-826 468.2449,-862"/>
<text text-anchor="middle" x="371.0158" y="-840.7" font-family="Courier,monospace" font-size="11.00" fill="#000000">Object_Sync_Sf_Admin_Notice</text>
</g>
<!-- \\Object_Sync_Salesforce -->
<g id="node4" class="node">
<title>\\Object_Sync_Salesforce</title>
<polygon fill="none" stroke="#000000" points="451.7396,-808 290.292,-808 290.292,-772 451.7396,-772 451.7396,-808"/>
<text text-anchor="middle" x="371.0158" y="-786.7" font-family="Courier,monospace" font-size="11.00" fill="#000000">Object_Sync_Salesforce</text>
</g>
<!-- \\Object_Sync_Sf_Salesforce_Pull -->
<g id="node5" class="node">
<title>\\Object_Sync_Sf_Salesforce_Pull</title>
<polygon fill="none" stroke="#000000" points="478.048,-754 263.9836,-754 263.9836,-718 478.048,-718 478.048,-754"/>
<text text-anchor="middle" x="371.0158" y="-732.7" font-family="Courier,monospace" font-size="11.00" fill="#000000">Object_Sync_Sf_Salesforce_Pull</text>
</g>
<!-- \\Object_Sync_Sf_Mapping -->
<g id="node6" class="node">
<title>\\Object_Sync_Sf_Mapping</title>
<polygon fill="none" stroke="#000000" points="451.7396,-700 290.292,-700 290.292,-664 451.7396,-664 451.7396,-700"/>
<text text-anchor="middle" x="371.0158" y="-678.7" font-family="Courier,monospace" font-size="11.00" fill="#000000">Object_Sync_Sf_Mapping</text>
</g>
<!-- \\Object_Sync_Sf_Salesforce -->
<g id="node7" class="node">
<title>\\Object_Sync_Sf_Salesforce</title>
<polygon fill="none" stroke="#000000" points="461.5427,-646 280.4889,-646 280.4889,-610 461.5427,-610 461.5427,-646"/>
<text text-anchor="middle" x="371.0158" y="-624.7" font-family="Courier,monospace" font-size="11.00" fill="#000000">Object_Sync_Sf_Salesforce</text>
</g>
<!-- \\Object_Sync_Sf_Exception -->
<g id="node8" class="node">
<title>\\Object_Sync_Sf_Exception</title>
<polygon fill="none" stroke="#000000" points="458.4421,-592 283.5895,-592 283.5895,-556 458.4421,-556 458.4421,-592"/>
<text text-anchor="middle" x="371.0158" y="-570.7" font-family="Courier,monospace" font-size="11.00" fill="#000000">Object_Sync_Sf_Exception</text>
</g>
<!-- \\Exception -->
<g id="node19" class="node">
<title>\\Exception</title>
<ellipse fill="none" stroke="#000000" cx="82.7977" cy="-439" rx="48.3341" ry="18"/>
<text text-anchor="middle" x="82.7977" y="-434.8" font-family="Times,serif" font-size="14.00" fill="#c0c0c0">\Exception</text>
</g>
<!-- \\Object_Sync_Sf_Exception&#45;&gt;\\Exception -->
<g id="edge1" class="edge">
<title>\\Object_Sync_Sf_Exception&#45;&gt;\\Exception</title>
<path fill="none" stroke="#000000" d="M283.5464,-563.6019C265.2607,-559.7022 246.4337,-554.3479 229.5954,-547 182.0868,-526.2682 135.2652,-487.8408 107.708,-462.857"/>
<polygon fill="none" stroke="#000000" points="109.8566,-460.0778 100.1283,-455.8813 105.1163,-465.2285 109.8566,-460.0778"/>
</g>
<!-- \\Object_Sync_Sf_Deactivate -->
<g id="node9" class="node">
<title>\\Object_Sync_Sf_Deactivate</title>
<polygon fill="none" stroke="#000000" points="461.5427,-538 280.4889,-538 280.4889,-502 461.5427,-502 461.5427,-538"/>
<text text-anchor="middle" x="371.0158" y="-516.7" font-family="Courier,monospace" font-size="11.00" fill="#000000">Object_Sync_Sf_Deactivate</text>
</g>
<!-- \\Object_Sync_Sf_Salesforce_Push -->
<g id="node10" class="node">
<title>\\Object_Sync_Sf_Salesforce_Push</title>
<polygon fill="none" stroke="#000000" points="478.048,-484 263.9836,-484 263.9836,-448 478.048,-448 478.048,-484"/>
<text text-anchor="middle" x="371.0158" y="-462.7" font-family="Courier,monospace" font-size="11.00" fill="#000000">Object_Sync_Sf_Salesforce_Push</text>
</g>
<!-- \\Object_Sync_Sf_Queue -->
<g id="node11" class="node">
<title>\\Object_Sync_Sf_Queue</title>
<polygon fill="none" stroke="#000000" points="445.0373,-430 296.9943,-430 296.9943,-394 445.0373,-394 445.0373,-430"/>
<text text-anchor="middle" x="371.0158" y="-408.7" font-family="Courier,monospace" font-size="11.00" fill="#000000">Object_Sync_Sf_Queue</text>
</g>
<!-- \\Object_Sync_Sf_Admin -->
<g id="node12" class="node">
<title>\\Object_Sync_Sf_Admin</title>
<polygon fill="none" stroke="#000000" points="445.0373,-376 296.9943,-376 296.9943,-340 445.0373,-340 445.0373,-376"/>
<text text-anchor="middle" x="371.0158" y="-354.7" font-family="Courier,monospace" font-size="11.00" fill="#000000">Object_Sync_Sf_Admin</text>
</g>
<!-- \\Object_Sync_Sf_Logging -->
<g id="node13" class="node">
<title>\\Object_Sync_Sf_Logging</title>
<polygon fill="none" stroke="#000000" points="451.7396,-268 290.292,-268 290.292,-232 451.7396,-232 451.7396,-268"/>
<text text-anchor="middle" x="371.0158" y="-246.7" font-family="Courier,monospace" font-size="11.00" fill="#000000">Object_Sync_Sf_Logging</text>
</g>
<!-- \\WP_Logging -->
<g id="node20" class="node">
<title>\\WP_Logging</title>
<ellipse fill="none" stroke="#000000" cx="82.7977" cy="-250" rx="60.4375" ry="18"/>
<text text-anchor="middle" x="82.7977" y="-245.8" font-family="Times,serif" font-size="14.00" fill="#c0c0c0">\WP_Logging</text>
</g>
<!-- \\Object_Sync_Sf_Logging&#45;&gt;\\WP_Logging -->
<g id="edge2" class="edge">
<title>\\Object_Sync_Sf_Logging&#45;&gt;\\WP_Logging</title>
<path fill="none" stroke="#000000" d="M290.3477,-250C247.2702,-250 194.7436,-250 153.3109,-250"/>
<polygon fill="none" stroke="#000000" points="153.3,-246.5001 143.3,-250 153.2999,-253.5001 153.3,-246.5001"/>
</g>
<!-- \\Object_Sync_Sf_Salesforce_Soap_Partner -->
<g id="node14" class="node">
<title>\\Object_Sync_Sf_Salesforce_Soap_Partner</title>
<polygon fill="none" stroke="#000000" points="504.3567,-160 237.6749,-160 237.6749,-124 504.3567,-124 504.3567,-160"/>
<text text-anchor="middle" x="371.0158" y="-138.7" font-family="Courier,monospace" font-size="11.00" fill="#000000">Object_Sync_Sf_Salesforce_Soap_Partner</text>
</g>
<!-- \\SforcePartnerClient -->
<g id="node21" class="node">
<title>\\SforcePartnerClient</title>
<ellipse fill="none" stroke="#000000" cx="82.7977" cy="-142" rx="82.5959" ry="18"/>
<text text-anchor="middle" x="82.7977" y="-137.8" font-family="Times,serif" font-size="14.00" fill="#c0c0c0">\SforcePartnerClient</text>
</g>
<!-- \\Object_Sync_Sf_Salesforce_Soap_Partner&#45;&gt;\\SforcePartnerClient -->
<g id="edge3" class="edge">
<title>\\Object_Sync_Sf_Salesforce_Soap_Partner&#45;&gt;\\SforcePartnerClient</title>
<path fill="none" stroke="#000000" d="M237.4532,-142C216.6379,-142 195.5275,-142 175.8717,-142"/>
<polygon fill="none" stroke="#000000" points="175.7349,-138.5001 165.7349,-142 175.7348,-145.5001 175.7349,-138.5001"/>
</g>
<!-- \\Object_Sync_Sf_WordPress -->
<g id="node15" class="node">
<title>\\Object_Sync_Sf_WordPress</title>
<polygon fill="none" stroke="#000000" points="458.4421,-214 283.5895,-214 283.5895,-178 458.4421,-178 458.4421,-214"/>
<text text-anchor="middle" x="371.0158" y="-192.7" font-family="Courier,monospace" font-size="11.00" fill="#000000">Object_Sync_Sf_WordPress</text>
</g>
<!-- \\WordpressException -->
<g id="node16" class="node">
<title>\\WordpressException</title>
<polygon fill="none" stroke="#000000" points="438.3353,-322 303.6963,-322 303.6963,-286 438.3353,-286 438.3353,-322"/>
<text text-anchor="middle" x="371.0158" y="-300.7" font-family="Courier,monospace" font-size="11.00" fill="#000000">WordpressException</text>
</g>
<!-- \\WordpressException&#45;&gt;\\Exception -->
<g id="edge4" class="edge">
<title>\\WordpressException&#45;&gt;\\Exception</title>
<path fill="none" stroke="#000000" d="M303.3535,-310.6626C279.3612,-314.6331 252.6193,-320.9528 229.5954,-331 182.0868,-351.7318 135.2652,-390.1592 107.708,-415.143"/>
<polygon fill="none" stroke="#000000" points="105.1163,-412.7715 100.1283,-422.1187 109.8566,-417.9222 105.1163,-412.7715"/>
</g>
<!-- \\Object_Sync_Sf_WordPress_Transient -->
<g id="node17" class="node">
<title>\\Object_Sync_Sf_WordPress_Transient</title>
<polygon fill="none" stroke="#000000" points="491.4527,-106 250.5789,-106 250.5789,-70 491.4527,-70 491.4527,-106"/>
<text text-anchor="middle" x="371.0158" y="-84.7" font-family="Courier,monospace" font-size="11.00" fill="#000000">Object_Sync_Sf_WordPress_Transient</text>
</g>
<!-- \\Object_Sync_Sf_Rest -->
<g id="node18" class="node">
<title>\\Object_Sync_Sf_Rest</title>
<polygon fill="none" stroke="#000000" points="441.9368,-52 300.0948,-52 300.0948,-16 441.9368,-16 441.9368,-52"/>
<text text-anchor="middle" x="371.0158" y="-30.7" font-family="Courier,monospace" font-size="11.00" fill="#000000">Object_Sync_Sf_Rest</text>
</g>
</g>
</svg>
