<?xml version="1.0" encoding="UTF-8" standalone="no"?>
<!DOCTYPE svg PUBLIC "-//W3C//DTD SVG 1.1//EN"
 "http://www.w3.org/Graphics/SVG/1.1/DTD/svg11.dtd">
<!-- Generated by graphviz version 2.43.0 (0)
 -->
<!-- Title: G Pages: 1 -->
<svg width="528pt" height="1013pt"
 viewBox="0.00 0.00 528.44 1013.00" xmlns="http://www.w3.org/2000/svg" xmlns:xlink="http://www.w3.org/1999/xlink">
<g id="graph0" class="graph" transform="scale(1 1) rotate(0) translate(4 1009)">
<title>G</title>
<polygon fill="white" stroke="transparent" points="-4,4 -4,-1009 524.44,-1009 524.44,4 -4,4"/>
<g id="clust1" class="cluster">
<title>cluster_Global</title>
<path fill="none" stroke="gray" d="M241.6,-8C241.6,-8 500.44,-8 500.44,-8 506.44,-8 512.44,-14 512.44,-20 512.44,-20 512.44,-985 512.44,-985 512.44,-991 506.44,-997 500.44,-997 500.44,-997 241.6,-997 241.6,-997 235.6,-997 229.6,-991 229.6,-985 229.6,-985 229.6,-20 229.6,-20 229.6,-14 235.6,-8 241.6,-8"/>
<text text-anchor="middle" x="371.02" y="-984.2" font-family="Times,serif" font-size="11.00" fill="gray">Global</text>
</g>
<!-- \\Object_Sync_Sf_Activate -->
<g id="node1" class="node">
<title>\\Object_Sync_Sf_Activate</title>
<polygon fill="none" stroke="black" points="454.84,-970 287.19,-970 287.19,-934 454.84,-934 454.84,-970"/>
<text text-anchor="middle" x="371.02" y="-948.7" font-family="Courier,monospace" font-size="11.00">Object_Sync_Sf_Activate</text>
</g>
<!-- \\Object_Sync_Sf_Salesforce_Select_Query -->
<g id="node2" class="node">
<title>\\Object_Sync_Sf_Salesforce_Select_Query</title>
<polygon fill="none" stroke="black" points="504.36,-916 237.67,-916 237.67,-880 504.36,-880 504.36,-916"/>
<text text-anchor="middle" x="371.02" y="-894.7" font-family="Courier,monospace" font-size="11.00">Object_Sync_Sf_Salesforce_Select_Query</text>
</g>
<!-- \\Object_Sync_Sf_Admin_Notice -->
<g id="node3" class="node">
<title>\\Object_Sync_Sf_Admin_Notice</title>
<polygon fill="none" stroke="black" points="468.24,-862 273.79,-862 273.79,-826 468.24,-826 468.24,-862"/>
<text text-anchor="middle" x="371.02" y="-840.7" font-family="Courier,monospace" font-size="11.00">Object_Sync_Sf_Admin_Notice</text>
</g>
<!-- \\Object_Sync_Salesforce -->
<g id="node4" class="node">
<title>\\Object_Sync_Salesforce</title>
<polygon fill="none" stroke="black" points="451.74,-808 290.29,-808 290.29,-772 451.74,-772 451.74,-808"/>
<text text-anchor="middle" x="371.02" y="-786.7" font-family="Courier,monospace" font-size="11.00">Object_Sync_Salesforce</text>
</g>
<!-- \\Object_Sync_Sf_Salesforce_Pull -->
<g id="node5" class="node">
<title>\\Object_Sync_Sf_Salesforce_Pull</title>
<polygon fill="none" stroke="black" points="478.05,-754 263.98,-754 263.98,-718 478.05,-718 478.05,-754"/>
<text text-anchor="middle" x="371.02" y="-732.7" font-family="Courier,monospace" font-size="11.00">Object_Sync_Sf_Salesforce_Pull</text>
</g>
<!-- \\Object_Sync_Sf_Mapping -->
<g id="node6" class="node">
<title>\\Object_Sync_Sf_Mapping</title>
<polygon fill="none" stroke="black" points="451.74,-700 290.29,-700 290.29,-664 451.74,-664 451.74,-700"/>
<text text-anchor="middle" x="371.02" y="-678.7" font-family="Courier,monospace" font-size="11.00">Object_Sync_Sf_Mapping</text>
</g>
<!-- \\Object_Sync_Sf_Rest -->
<g id="node7" class="node">
<title>\\Object_Sync_Sf_Rest</title>
<polygon fill="none" stroke="black" points="441.94,-646 300.09,-646 300.09,-610 441.94,-610 441.94,-646"/>
<text text-anchor="middle" x="371.02" y="-624.7" font-family="Courier,monospace" font-size="11.00">Object_Sync_Sf_Rest</text>
</g>
<!-- \\Object_Sync_Sf_Salesforce -->
<g id="node8" class="node">
<title>\\Object_Sync_Sf_Salesforce</title>
<polygon fill="none" stroke="black" points="461.54,-592 280.49,-592 280.49,-556 461.54,-556 461.54,-592"/>
<text text-anchor="middle" x="371.02" y="-570.7" font-family="Courier,monospace" font-size="11.00">Object_Sync_Sf_Salesforce</text>
</g>
<!-- \\Object_Sync_Sf_Exception -->
<g id="node9" class="node">
<title>\\Object_Sync_Sf_Exception</title>
<polygon fill="none" stroke="black" points="458.44,-538 283.59,-538 283.59,-502 458.44,-502 458.44,-538"/>
<text text-anchor="middle" x="371.02" y="-516.7" font-family="Courier,monospace" font-size="11.00">Object_Sync_Sf_Exception</text>
</g>
<!-- \\Exception -->
<g id="node19" class="node">
<title>\\Exception</title>
<ellipse fill="none" stroke="black" cx="82.8" cy="-385" rx="48.33" ry="18"/>
<text text-anchor="middle" x="82.8" y="-380.8" font-family="Times,serif" font-size="14.00" fill="gray">\Exception</text>
</g>
<!-- \\Object_Sync_Sf_Exception&#45;&gt;\\Exception -->
<g id="edge1" class="edge">
<title>\\Object_Sync_Sf_Exception&#45;&gt;\\Exception</title>
<path fill="none" stroke="black" d="M283.52,-509.66C265.25,-505.76 246.42,-500.39 229.6,-493 182.34,-472.25 135.86,-433.83 108.51,-408.85"/>
<polygon fill="none" stroke="black" points="110.7,-406.11 100.99,-401.88 105.94,-411.24 110.7,-406.11"/>
</g>
<!-- \\Object_Sync_Sf_Deactivate -->
<g id="node10" class="node">
<title>\\Object_Sync_Sf_Deactivate</title>
<polygon fill="none" stroke="black" points="461.54,-484 280.49,-484 280.49,-448 461.54,-448 461.54,-484"/>
<text text-anchor="middle" x="371.02" y="-462.7" font-family="Courier,monospace" font-size="11.00">Object_Sync_Sf_Deactivate</text>
</g>
<!-- \\Object_Sync_Sf_Salesforce_Push -->
<g id="node11" class="node">
<title>\\Object_Sync_Sf_Salesforce_Push</title>
<polygon fill="none" stroke="black" points="478.05,-430 263.98,-430 263.98,-394 478.05,-394 478.05,-430"/>
<text text-anchor="middle" x="371.02" y="-408.7" font-family="Courier,monospace" font-size="11.00">Object_Sync_Sf_Salesforce_Push</text>
</g>
<!-- \\Object_Sync_Sf_Queue -->
<g id="node12" class="node">
<title>\\Object_Sync_Sf_Queue</title>
<polygon fill="none" stroke="black" points="445.04,-376 296.99,-376 296.99,-340 445.04,-340 445.04,-376"/>
<text text-anchor="middle" x="371.02" y="-354.7" font-family="Courier,monospace" font-size="11.00">Object_Sync_Sf_Queue</text>
</g>
<!-- \\Object_Sync_Sf_Admin -->
<g id="node13" class="node">
<title>\\Object_Sync_Sf_Admin</title>
<polygon fill="none" stroke="black" points="445.04,-322 296.99,-322 296.99,-286 445.04,-286 445.04,-322"/>
<text text-anchor="middle" x="371.02" y="-300.7" font-family="Courier,monospace" font-size="11.00">Object_Sync_Sf_Admin</text>
</g>
<!-- \\Object_Sync_Sf_Logging -->
<g id="node14" class="node">
<title>\\Object_Sync_Sf_Logging</title>
<polygon fill="none" stroke="black" points="451.74,-214 290.29,-214 290.29,-178 451.74,-178 451.74,-214"/>
<text text-anchor="middle" x="371.02" y="-192.7" font-family="Courier,monospace" font-size="11.00">Object_Sync_Sf_Logging</text>
</g>
<!-- \\WP_Logging -->
<g id="node20" class="node">
<title>\\WP_Logging</title>
<ellipse fill="none" stroke="black" cx="82.8" cy="-196" rx="60.44" ry="18"/>
<text text-anchor="middle" x="82.8" y="-191.8" font-family="Times,serif" font-size="14.00" fill="gray">\WP_Logging</text>
</g>
<!-- \\Object_Sync_Sf_Logging&#45;&gt;\\WP_Logging -->
<g id="edge2" class="edge">
<title>\\Object_Sync_Sf_Logging&#45;&gt;\\WP_Logging</title>
<path fill="none" stroke="black" d="M290.29,-196C247.29,-196 194.72,-196 153.38,-196"/>
<polygon fill="none" stroke="black" points="153.13,-192.5 143.13,-196 153.13,-199.5 153.13,-192.5"/>
</g>
<!-- \\Object_Sync_Sf_Salesforce_Soap_Partner -->
<g id="node15" class="node">
<title>\\Object_Sync_Sf_Salesforce_Soap_Partner</title>
<polygon fill="none" stroke="black" points="504.36,-106 237.67,-106 237.67,-70 504.36,-70 504.36,-106"/>
<text text-anchor="middle" x="371.02" y="-84.7" font-family="Courier,monospace" font-size="11.00">Object_Sync_Sf_Salesforce_Soap_Partner</text>
</g>
<!-- \\SforcePartnerClient -->
<g id="node21" class="node">
<title>\\SforcePartnerClient</title>
<ellipse fill="none" stroke="black" cx="82.8" cy="-88" rx="82.6" ry="18"/>
<text text-anchor="middle" x="82.8" y="-83.8" font-family="Times,serif" font-size="14.00" fill="gray">\SforcePartnerClient</text>
</g>
<!-- \\Object_Sync_Sf_Salesforce_Soap_Partner&#45;&gt;\\SforcePartnerClient -->
<g id="edge3" class="edge">
<title>\\Object_Sync_Sf_Salesforce_Soap_Partner&#45;&gt;\\SforcePartnerClient</title>
<path fill="none" stroke="black" d="M237.38,-88C216.58,-88 195.49,-88 175.87,-88"/>
<polygon fill="none" stroke="black" points="175.76,-84.5 165.76,-88 175.76,-91.5 175.76,-84.5"/>
</g>
<!-- \\Object_Sync_Sf_WordPress -->
<g id="node16" class="node">
<title>\\Object_Sync_Sf_WordPress</title>
<polygon fill="none" stroke="black" points="458.44,-160 283.59,-160 283.59,-124 458.44,-124 458.44,-160"/>
<text text-anchor="middle" x="371.02" y="-138.7" font-family="Courier,monospace" font-size="11.00">Object_Sync_Sf_WordPress</text>
</g>
<!-- \\WordpressException -->
<g id="node17" class="node">
<title>\\WordpressException</title>
<polygon fill="none" stroke="black" points="438.34,-268 303.7,-268 303.7,-232 438.34,-232 438.34,-268"/>
<text text-anchor="middle" x="371.02" y="-246.7" font-family="Courier,monospace" font-size="11.00">WordpressException</text>
</g>
<!-- \\WordpressException&#45;&gt;\\Exception -->
<g id="edge4" class="edge">
<title>\\WordpressException&#45;&gt;\\Exception</title>
<path fill="none" stroke="black" d="M303.52,-256.56C279.52,-260.53 252.67,-266.87 229.6,-277 182.34,-297.75 135.86,-336.17 108.51,-361.15"/>
<polygon fill="none" stroke="black" points="105.94,-358.76 100.99,-368.12 110.7,-363.89 105.94,-358.76"/>
</g>
<!-- \\Object_Sync_Sf_WordPress_Transient -->
<g id="node18" class="node">
<title>\\Object_Sync_Sf_WordPress_Transient</title>
<polygon fill="none" stroke="black" points="491.45,-52 250.58,-52 250.58,-16 491.45,-16 491.45,-52"/>
<text text-anchor="middle" x="371.02" y="-30.7" font-family="Courier,monospace" font-size="11.00">Object_Sync_Sf_WordPress_Transient</text>
</g>
</g>
</svg>
