<?xml version="1.0" encoding="UTF-8" standalone="no"?>
<!DOCTYPE svg PUBLIC "-//W3C//DTD SVG 1.1//EN"
 "http://www.w3.org/Graphics/SVG/1.1/DTD/svg11.dtd">
<!-- Generated by graphviz version 2.40.1 (20161225.0304)
 -->
<!-- Title: G Pages: 1 -->
<svg width="528pt" height="1013pt"
 viewBox="0.00 0.00 528.44 1013.00" xmlns="http://www.w3.org/2000/svg" xmlns:xlink="http://www.w3.org/1999/xlink">
<g id="graph0" class="graph" transform="scale(1 1) rotate(0) translate(4 1009)">
<title>G</title>
<polygon fill="#ffffff" stroke="transparent" points="-4,4 -4,-1009 524.4362,-1009 524.4362,4 -4,4"/>
<g id="clust1" class="cluster">
<title>cluster_Global</title>
<path fill="none" stroke="#c0c0c0" d="M241.5954,-8C241.5954,-8 500.4362,-8 500.4362,-8 506.4362,-8 512.4362,-14 512.4362,-20 512.4362,-20 512.4362,-985 512.4362,-985 512.4362,-991 506.4362,-997 500.4362,-997 500.4362,-997 241.5954,-997 241.5954,-997 235.5954,-997 229.5954,-991 229.5954,-985 229.5954,-985 229.5954,-20 229.5954,-20 229.5954,-14 235.5954,-8 241.5954,-8"/>
<text text-anchor="middle" x="371.0158" y="-984.2" font-family="Times,serif" font-size="11.00" fill="#c0c0c0">Global</text>
</g>
<!-- \\Object_Sync_Salesforce -->
<g id="node1" class="node">
<title>\\Object_Sync_Salesforce</title>
<polygon fill="none" stroke="#000000" points="451.7396,-970 290.292,-970 290.292,-934 451.7396,-934 451.7396,-970"/>
<text text-anchor="middle" x="371.0158" y="-948.7" font-family="Courier,monospace" font-size="11.00" fill="#000000">Object_Sync_Salesforce</text>
</g>
<!-- \\Object_Sync_Sf_Salesforce -->
<g id="node2" class="node">
<title>\\Object_Sync_Sf_Salesforce</title>
<polygon fill="none" stroke="#000000" points="461.5427,-916 280.4889,-916 280.4889,-880 461.5427,-880 461.5427,-916"/>
<text text-anchor="middle" x="371.0158" y="-894.7" font-family="Courier,monospace" font-size="11.00" fill="#000000">Object_Sync_Sf_Salesforce</text>
</g>
<!-- \\Object_Sync_Sf_Exception -->
<g id="node3" class="node">
<title>\\Object_Sync_Sf_Exception</title>
<polygon fill="none" stroke="#000000" points="458.4421,-862 283.5895,-862 283.5895,-826 458.4421,-826 458.4421,-862"/>
<text text-anchor="middle" x="371.0158" y="-840.7" font-family="Courier,monospace" font-size="11.00" fill="#000000">Object_Sync_Sf_Exception</text>
</g>
<!-- \\Exception -->
<g id="node19" class="node">
<title>\\Exception</title>
<ellipse fill="none" stroke="#000000" cx="82.7977" cy="-655" rx="48.3341" ry="18"/>
<text text-anchor="middle" x="82.7977" y="-650.8" font-family="Times,serif" font-size="14.00" fill="#c0c0c0">\Exception</text>
</g>
<!-- \\Object_Sync_Sf_Exception&#45;&gt;\\Exception -->
<g id="edge1" class="edge">
<title>\\Object_Sync_Sf_Exception&#45;&gt;\\Exception</title>
<path fill="none" stroke="#000000" d="M283.7832,-836.4398C265.1004,-832.3774 246.0506,-826.2394 229.5954,-817 170.5606,-783.8527 122.5213,-718.2423 98.8178,-681.5043"/>
<polygon fill="none" stroke="#000000" points="101.6292,-679.4018 93.3239,-672.8235 95.7143,-683.1452 101.6292,-679.4018"/>
</g>
<!-- \\Object_Sync_Sf_Queue -->
<g id="node4" class="node">
<title>\\Object_Sync_Sf_Queue</title>
<polygon fill="none" stroke="#000000" points="445.0373,-808 296.9943,-808 296.9943,-772 445.0373,-772 445.0373,-808"/>
<text text-anchor="middle" x="371.0158" y="-786.7" font-family="Courier,monospace" font-size="11.00" fill="#000000">Object_Sync_Sf_Queue</text>
</g>
<!-- \\Object_Sync_Sf_Mapping -->
<g id="node5" class="node">
<title>\\Object_Sync_Sf_Mapping</title>
<polygon fill="none" stroke="#000000" points="451.7396,-754 290.292,-754 290.292,-718 451.7396,-718 451.7396,-754"/>
<text text-anchor="middle" x="371.0158" y="-732.7" font-family="Courier,monospace" font-size="11.00" fill="#000000">Object_Sync_Sf_Mapping</text>
</g>
<!-- \\Object_Sync_Sf_Admin_Notice -->
<g id="node6" class="node">
<title>\\Object_Sync_Sf_Admin_Notice</title>
<polygon fill="none" stroke="#000000" points="468.2449,-700 273.7867,-700 273.7867,-664 468.2449,-664 468.2449,-700"/>
<text text-anchor="middle" x="371.0158" y="-678.7" font-family="Courier,monospace" font-size="11.00" fill="#000000">Object_Sync_Sf_Admin_Notice</text>
</g>
<!-- \\Object_Sync_Sf_Deactivate -->
<g id="node7" class="node">
<title>\\Object_Sync_Sf_Deactivate</title>
<polygon fill="none" stroke="#000000" points="461.5427,-646 280.4889,-646 280.4889,-610 461.5427,-610 461.5427,-646"/>
<text text-anchor="middle" x="371.0158" y="-624.7" font-family="Courier,monospace" font-size="11.00" fill="#000000">Object_Sync_Sf_Deactivate</text>
</g>
<!-- \\Object_Sync_Sf_Rest -->
<g id="node8" class="node">
<title>\\Object_Sync_Sf_Rest</title>
<polygon fill="none" stroke="#000000" points="441.9368,-592 300.0948,-592 300.0948,-556 441.9368,-556 441.9368,-592"/>
<text text-anchor="middle" x="371.0158" y="-570.7" font-family="Courier,monospace" font-size="11.00" fill="#000000">Object_Sync_Sf_Rest</text>
</g>
<!-- \\Object_Sync_Sf_WordPress -->
<g id="node9" class="node">
<title>\\Object_Sync_Sf_WordPress</title>
<polygon fill="none" stroke="#000000" points="458.4421,-538 283.5895,-538 283.5895,-502 458.4421,-502 458.4421,-538"/>
<text text-anchor="middle" x="371.0158" y="-516.7" font-family="Courier,monospace" font-size="11.00" fill="#000000">Object_Sync_Sf_WordPress</text>
</g>
<!-- \\WordpressException -->
<g id="node10" class="node">
<title>\\WordpressException</title>
<polygon fill="none" stroke="#000000" points="438.3353,-484 303.6963,-484 303.6963,-448 438.3353,-448 438.3353,-484"/>
<text text-anchor="middle" x="371.0158" y="-462.7" font-family="Courier,monospace" font-size="11.00" fill="#000000">WordpressException</text>
</g>
<!-- \\WordpressException&#45;&gt;\\Exception -->
<g id="edge2" class="edge">
<title>\\WordpressException&#45;&gt;\\Exception</title>
<path fill="none" stroke="#000000" d="M303.5506,-469.9514C279.0573,-473.6291 251.9353,-480.4565 229.5954,-493 170.5606,-526.1473 122.5213,-591.7577 98.8178,-628.4957"/>
<polygon fill="none" stroke="#000000" points="95.7143,-626.8548 93.3239,-637.1765 101.6292,-630.5982 95.7143,-626.8548"/>
</g>
<!-- \\Object_Sync_Sf_WordPress_Transient -->
<g id="node11" class="node">
<title>\\Object_Sync_Sf_WordPress_Transient</title>
<polygon fill="none" stroke="#000000" points="491.4527,-430 250.5789,-430 250.5789,-394 491.4527,-394 491.4527,-430"/>
<text text-anchor="middle" x="371.0158" y="-408.7" font-family="Courier,monospace" font-size="11.00" fill="#000000">Object_Sync_Sf_WordPress_Transient</text>
</g>
<!-- \\Object_Sync_Sf_Salesforce_Pull -->
<g id="node12" class="node">
<title>\\Object_Sync_Sf_Salesforce_Pull</title>
<polygon fill="none" stroke="#000000" points="478.048,-376 263.9836,-376 263.9836,-340 478.048,-340 478.048,-376"/>
<text text-anchor="middle" x="371.0158" y="-354.7" font-family="Courier,monospace" font-size="11.00" fill="#000000">Object_Sync_Sf_Salesforce_Pull</text>
</g>
<!-- \\Object_Sync_Sf_Activate -->
<g id="node13" class="node">
<title>\\Object_Sync_Sf_Activate</title>
<polygon fill="none" stroke="#000000" points="454.8406,-322 287.191,-322 287.191,-286 454.8406,-286 454.8406,-322"/>
<text text-anchor="middle" x="371.0158" y="-300.7" font-family="Courier,monospace" font-size="11.00" fill="#000000">Object_Sync_Sf_Activate</text>
</g>
<!-- \\Object_Sync_Sf_Salesforce_Select_Query -->
<g id="node14" class="node">
<title>\\Object_Sync_Sf_Salesforce_Select_Query</title>
<polygon fill="none" stroke="#000000" points="504.3567,-268 237.6749,-268 237.6749,-232 504.3567,-232 504.3567,-268"/>
<text text-anchor="middle" x="371.0158" y="-246.7" font-family="Courier,monospace" font-size="11.00" fill="#000000">Object_Sync_Sf_Salesforce_Select_Query</text>
</g>
<!-- \\Object_Sync_Sf_Salesforce_Push -->
<g id="node15" class="node">
<title>\\Object_Sync_Sf_Salesforce_Push</title>
<polygon fill="none" stroke="#000000" points="478.048,-214 263.9836,-214 263.9836,-178 478.048,-178 478.048,-214"/>
<text text-anchor="middle" x="371.0158" y="-192.7" font-family="Courier,monospace" font-size="11.00" fill="#000000">Object_Sync_Sf_Salesforce_Push</text>
</g>
<!-- \\Object_Sync_Sf_Admin -->
<g id="node16" class="node">
<title>\\Object_Sync_Sf_Admin</title>
<polygon fill="none" stroke="#000000" points="445.0373,-160 296.9943,-160 296.9943,-124 445.0373,-124 445.0373,-160"/>
<text text-anchor="middle" x="371.0158" y="-138.7" font-family="Courier,monospace" font-size="11.00" fill="#000000">Object_Sync_Sf_Admin</text>
</g>
<!-- \\Object_Sync_Sf_Salesforce_Soap_Partner -->
<g id="node17" class="node">
<title>\\Object_Sync_Sf_Salesforce_Soap_Partner</title>
<polygon fill="none" stroke="#000000" points="504.3567,-106 237.6749,-106 237.6749,-70 504.3567,-70 504.3567,-106"/>
<text text-anchor="middle" x="371.0158" y="-84.7" font-family="Courier,monospace" font-size="11.00" fill="#000000">Object_Sync_Sf_Salesforce_Soap_Partner</text>
</g>
<!-- \\SforcePartnerClient -->
<g id="node20" class="node">
<title>\\SforcePartnerClient</title>
<ellipse fill="none" stroke="#000000" cx="82.7977" cy="-88" rx="82.5959" ry="18"/>
<text text-anchor="middle" x="82.7977" y="-83.8" font-family="Times,serif" font-size="14.00" fill="#c0c0c0">\SforcePartnerClient</text>
</g>
<!-- \\Object_Sync_Sf_Salesforce_Soap_Partner&#45;&gt;\\SforcePartnerClient -->
<g id="edge3" class="edge">
<title>\\Object_Sync_Sf_Salesforce_Soap_Partner&#45;&gt;\\SforcePartnerClient</title>
<path fill="none" stroke="#000000" d="M237.4532,-88C216.6379,-88 195.5275,-88 175.8717,-88"/>
<polygon fill="none" stroke="#000000" points="175.7349,-84.5001 165.7349,-88 175.7348,-91.5001 175.7349,-84.5001"/>
</g>
<!-- \\Object_Sync_Sf_Logging -->
<g id="node18" class="node">
<title>\\Object_Sync_Sf_Logging</title>
<polygon fill="none" stroke="#000000" points="451.7396,-52 290.292,-52 290.292,-16 451.7396,-16 451.7396,-52"/>
<text text-anchor="middle" x="371.0158" y="-30.7" font-family="Courier,monospace" font-size="11.00" fill="#000000">Object_Sync_Sf_Logging</text>
</g>
<!-- \\WP_Logging -->
<g id="node21" class="node">
<title>\\WP_Logging</title>
<ellipse fill="none" stroke="#000000" cx="82.7977" cy="-34" rx="60.4375" ry="18"/>
<text text-anchor="middle" x="82.7977" y="-29.8" font-family="Times,serif" font-size="14.00" fill="#c0c0c0">\WP_Logging</text>
</g>
<!-- \\Object_Sync_Sf_Logging&#45;&gt;\\WP_Logging -->
<g id="edge4" class="edge">
<title>\\Object_Sync_Sf_Logging&#45;&gt;\\WP_Logging</title>
<path fill="none" stroke="#000000" d="M290.3477,-34C247.2702,-34 194.7436,-34 153.3109,-34"/>
<polygon fill="none" stroke="#000000" points="153.3,-30.5001 143.3,-34 153.2999,-37.5001 153.3,-30.5001"/>
</g>
</g>
</svg>
